<svg width="48" height="48" viewBox="0 0 48 48" fill="none" xmlns="http://www.w3.org/2000/svg">
<path d="M10.417 33.1279L14.8394 37.5503L11.2144 41.1752C10.8239 41.5658 10.1907 41.5658 9.80019 41.1752L6.79204 38.1671C6.40152 37.7766 6.40152 37.1434 6.79204 36.7529L10.417 33.1279Z" stroke="#224099" stroke-width="1.4"/>
<path d="M19.6855 22.5879L25.5324 28.4347L23.7878 30.1793C23.3973 30.5698 22.7641 30.5698 22.3736 30.1793L17.941 25.7467C17.5505 25.3561 17.5505 24.723 17.941 24.3325L19.6855 22.5879Z" stroke="#F47920" stroke-width="1.4"/>
<rect x="17.7031" y="20.5889" width="13.6907" height="13.9964" rx="2" transform="rotate(45 17.7031 20.5889)" stroke="#224099" stroke-width="1.4"/>
<rect x="26.916" y="19.042" width="2.95209" height="3.18976" rx="1" transform="rotate(45 26.916 19.042)" stroke="#224099" stroke-width="1.4"/>
<path d="M25.706 17.1664V13.5156L34.2627 22.0723L30.84 22.3005L27.554 25.5865C27.1635 25.977 26.5303 25.977 26.1398 25.5865L22.42 21.8667C22.0295 21.4761 22.0295 20.843 22.42 20.4525L25.706 17.1664Z" stroke="#F47920" stroke-width="1.4" stroke-linecap="round" stroke-linejoin="round"/>
<path d="M37.4796 18.3068L38.8344 19.6615C39.2249 20.0521 39.2249 20.6852 38.8344 21.0758L36.7716 23.1386C36.3811 23.5291 35.7479 23.5291 35.3574 23.1386L24.6783 12.4595C24.2878 12.069 24.2878 11.4358 24.6783 11.0453L26.7411 8.9825C27.1317 8.59197 27.7648 8.59197 28.1553 8.9825L29.6988 10.526" stroke="#224099" stroke-width="1.4"/>
<rect x="34.083" y="5.94922" width="11.1968" height="8.12718" rx="1" transform="rotate(45 34.083 5.94922)" stroke="#224099" stroke-width="1.4"/>
</svg>
