<svg width="48" height="48" viewBox="0 0 48 48" fill="none" xmlns="http://www.w3.org/2000/svg">
<path d="M28 34H8C7.44772 34 7 33.5523 7 33V12C7 11.4477 7.44772 11 8 11H40C40.5523 11 41 11.4477 41 12V33C41 33.5523 40.5523 34 40 34H39" stroke="#224099" stroke-width="1.4"/>
<rect width="4" height="4" transform="matrix(1 0 0 -1 22 38)" stroke="#224099" stroke-width="1.4"/>
<rect width="8" height="2" transform="matrix(1 0 0 -1 20 40)" stroke="#224099" stroke-width="1.4"/>
<circle cx="29.1471" cy="26.1471" r="4.5" transform="rotate(-30 29.1471 26.1471)" stroke="#F47920"/>
<path d="M34.9305 40.7699L34.5121 41.0435L34.5121 41.0435L34.9305 40.7699ZM28.2529 30.5576L28.3524 30.0676L27.1794 29.8294L27.8345 30.8313L28.2529 30.5576ZM38.9185 38.4674L39.3647 38.2418L38.9185 38.4674ZM33.4132 27.5783L33.8594 27.3527L33.3194 26.2845L32.9391 27.4195L33.4132 27.5783ZM35.349 40.4963L28.6714 30.284L27.8345 30.8313L34.5121 41.0435L35.349 40.4963ZM36.0175 40.6556C35.7877 40.7883 35.4942 40.7184 35.349 40.4963L34.5121 41.0435C34.9477 41.7098 35.828 41.9197 36.5175 41.5217L36.0175 40.6556ZM38.2761 39.3516L36.0175 40.6556L36.5175 41.5217L38.7761 40.2177L38.2761 39.3516ZM38.4723 38.693C38.592 38.9298 38.5059 39.2189 38.2761 39.3516L38.7761 40.2177C39.4655 39.8196 39.7239 38.9523 39.3647 38.2418L38.4723 38.693ZM32.967 27.8039L38.4723 38.693L39.3647 38.2418L33.8594 27.3527L32.967 27.8039ZM32.9391 27.4195C32.6399 28.3127 32.0266 29.1034 31.1468 29.6113L31.6468 30.4774C32.7459 29.8428 33.5136 28.8528 33.8873 27.7371L32.9391 27.4195ZM31.1468 29.6113C30.2669 30.1193 29.2756 30.2551 28.3524 30.0676L28.1534 31.0476C29.3065 31.2818 30.5476 31.112 31.6468 30.4774L31.1468 29.6113Z" fill="#F47920"/>
<path d="M32.3975 31.7764L33.8975 34.3744" stroke="#224099" stroke-width="1.4" stroke-linecap="round"/>
<path d="M17.801 20.4215C17.653 20.0644 17.2435 19.8948 16.8864 20.0428C16.5292 20.1907 16.3596 20.6002 16.5076 20.9574L17.801 20.4215ZM19.1691 23.7236L17.801 20.4215L16.5076 20.9574L17.8757 24.2595L19.1691 23.7236Z" fill="#F47920"/>
<path d="M18.6192 19.0001L17.1543 20.6895" stroke="#F47920" stroke-width="1.4" stroke-linecap="round"/>
<path d="M19.5137 21.1593L18.0488 22.8486" stroke="#F47920" stroke-width="1.4" stroke-linecap="round"/>
<path d="M16.2968 26.457C16.0854 25.9468 16.3277 25.3618 16.8379 25.1504L18.6856 24.3849L18.877 24.8468C19.1941 25.6122 18.8307 26.4896 18.0654 26.8067L17.6034 26.9981C17.0932 27.2095 16.5082 26.9673 16.2968 26.457V26.457Z" stroke="#F47920" stroke-width="1.4"/>
<path d="M26.7 15C26.7 14.6134 26.3866 14.3 26 14.3C25.6134 14.3 25.3 14.6134 25.3 15H26.7ZM26.7 18.5743V15H25.3V18.5743H26.7Z" fill="#F47920"/>
<path d="M28 14L26 15" stroke="#F47920" stroke-width="1.4" stroke-linecap="round"/>
<path d="M23 19.3369C23 18.7846 23.4477 18.3369 24 18.3369H26V18.8369C26 19.6653 25.3284 20.3369 24.5 20.3369H24C23.4477 20.3369 23 19.8892 23 19.3369V19.3369Z" stroke="#F47920" stroke-width="1.4"/>
</svg>
