<svg width="48" height="48" viewBox="0 0 48 48" fill="none" xmlns="http://www.w3.org/2000/svg">
<path d="M35.5388 42.4282C35.5388 36.5108 30.3729 31.7139 24.0004 31.7139C17.6279 31.7139 12.4619 36.5108 12.4619 42.4282" stroke="#F47920" stroke-width="1.4"/>
<path d="M22.8465 42.4289V33.8574C22.8465 33.8574 19.6958 33.8574 17.0772 36.536C14.7695 38.8966 14.7695 42.4289 14.7695 42.4289" stroke="#F47920" stroke-width="1.4" stroke-linejoin="round"/>
<path d="M25.1535 42.4289V33.8574C25.1535 33.8574 28.3042 33.8574 30.9228 36.536C33.2305 38.8966 33.2305 42.4289 33.2305 42.4289" stroke="#F47920" stroke-width="1.4" stroke-linejoin="round"/>
<path d="M19.3846 26.3574L19.5916 25.6887C19.3179 25.604 19.0201 25.6947 18.8401 25.9176L19.3846 26.3574ZM10.7308 32.2503L11.3187 32.6302L10.7308 32.2503ZM9 39.7503L8.30814 39.6438C8.25724 39.9747 8.44773 40.2953 8.76267 40.4088C9.0776 40.5223 9.42882 40.3969 9.6007 40.1097L9 39.7503ZM24 27.4289L24.6163 27.7607C24.7331 27.5438 24.7273 27.2814 24.601 27.0699C24.4746 26.8584 24.2464 26.7289 24 26.7289V27.4289ZM22.2692 30.6431L21.9745 31.278C22.3105 31.4341 22.7099 31.3012 22.8856 30.975L22.2692 30.6431ZM11.8846 34.9289L11.2967 34.549C11.2923 34.5557 11.2881 34.5626 11.2839 34.5695L11.8846 34.9289ZM13.6154 36.0003L13.3206 36.6352L13.6154 36.0003ZM22.8462 27.4289L22.6392 28.0976C22.7062 28.1183 22.776 28.1289 22.8462 28.1289V27.4289ZM18.8401 25.9176L17.1093 28.0604L18.1984 28.9401L19.9292 26.7973L18.8401 25.9176ZM17.5373 27.81C15.4207 28.1674 12.0532 28.9139 10.1428 31.8704L11.3187 32.6302C12.8699 30.2295 15.6562 29.5475 17.7704 29.1905L17.5373 27.81ZM10.1428 31.8704C9.26199 33.2336 8.85928 34.9147 8.64564 36.3566C8.53778 37.0846 8.47583 37.7694 8.4291 38.342C8.38083 38.9335 8.35123 39.3638 8.30814 39.6438L9.69186 39.8567C9.74493 39.5118 9.77994 39.0013 9.82446 38.4559C9.87052 37.8915 9.92954 37.2433 10.0305 36.5618C10.2346 35.1846 10.6011 33.7408 11.3187 32.6302L10.1428 31.8704ZM23.3837 27.097L21.6529 30.3113L22.8856 30.975L24.6163 27.7607L23.3837 27.097ZM22.564 30.0082L17.9486 27.8654L17.3591 29.1352L21.9745 31.278L22.564 30.0082ZM9.6007 40.1097L12.4853 35.2882L11.2839 34.5695L8.3993 39.3909L9.6007 40.1097ZM12.4726 35.3088C12.7343 34.9037 13.2149 34.2842 13.7807 33.7751C14.3737 33.2415 14.9266 32.9503 15.3462 32.9503V31.5503C14.3811 31.5503 13.4917 32.1519 12.8443 32.7344C12.1697 33.3413 11.6119 34.0611 11.2967 34.549L12.4726 35.3088ZM15.3462 32.9503C15.5695 32.9503 15.6342 33.0212 15.6727 33.0766C15.7393 33.1724 15.8 33.3615 15.8 33.6565C15.8 33.9403 15.7431 34.2509 15.6552 34.5161C15.6118 34.6473 15.5642 34.7567 15.5198 34.8386C15.4718 34.927 15.4424 34.9557 15.4468 34.9516L16.3994 35.9775C16.6745 35.722 16.8645 35.3177 16.9842 34.9565C17.1126 34.5689 17.2 34.1094 17.2 33.6565C17.2 33.2149 17.1165 32.7009 16.8225 32.2778C16.5004 31.8142 15.9882 31.5503 15.3462 31.5503V32.9503ZM15.4468 34.9516C15.1377 35.2386 14.9492 35.401 14.7418 35.478C14.5879 35.5352 14.3507 35.5699 13.9102 35.3654L13.3206 36.6352C14.0339 36.9664 14.6621 37.0011 15.2293 36.7904C15.7431 36.5996 16.1316 36.2262 16.3994 35.9775L15.4468 34.9516ZM13.9102 35.3654C13.043 34.9628 12.4915 34.5372 12.3609 34.4159L11.4083 35.4418C11.6623 35.6777 12.3416 36.1807 13.3206 36.6352L13.9102 35.3654ZM19.1776 27.0261L22.6392 28.0976L23.0531 26.7602L19.5916 25.6887L19.1776 27.0261ZM22.8462 28.1289H24V26.7289H22.8462V28.1289Z" fill="#224099"/>
<path d="M28.6154 26.3574L28.4084 25.6887C28.6821 25.604 28.9799 25.6947 29.1599 25.9176L28.6154 26.3574ZM37.2692 32.2503L36.6813 32.6302L37.2692 32.2503ZM39 39.7503L39.6919 39.6438C39.7428 39.9747 39.5523 40.2953 39.2373 40.4088C38.9224 40.5223 38.5712 40.3969 38.3993 40.1097L39 39.7503ZM24 27.4289L23.3837 27.7607C23.2669 27.5438 23.2727 27.2814 23.399 27.0699C23.5254 26.8584 23.7536 26.7289 24 26.7289V27.4289ZM25.7308 30.6431L26.0255 31.278C25.6895 31.4341 25.2901 31.3012 25.1144 30.975L25.7308 30.6431ZM36.1154 34.9289L36.7033 34.549C36.7077 34.5557 36.7119 34.5626 36.7161 34.5695L36.1154 34.9289ZM34.3846 36.0003L34.6794 36.6352L34.3846 36.0003ZM25.1538 27.4289L25.3608 28.0976C25.2938 28.1183 25.224 28.1289 25.1538 28.1289V27.4289ZM29.1599 25.9176L30.8907 28.0604L29.8016 28.9401L28.0708 26.7973L29.1599 25.9176ZM30.4627 27.81C32.5793 28.1674 35.9468 28.9139 37.8572 31.8704L36.6813 32.6302C35.1301 30.2295 32.3438 29.5475 30.2296 29.1905L30.4627 27.81ZM37.8572 31.8704C38.738 33.2336 39.1407 34.9147 39.3544 36.3566C39.4622 37.0846 39.5242 37.7694 39.5709 38.342C39.6192 38.9335 39.6488 39.3638 39.6919 39.6438L38.3081 39.8567C38.2551 39.5118 38.2201 39.0013 38.1755 38.4559C38.1295 37.8915 38.0705 37.2433 37.9695 36.5618C37.7654 35.1846 37.3989 33.7408 36.6813 32.6302L37.8572 31.8704ZM24.6163 27.097L26.3471 30.3113L25.1144 30.975L23.3837 27.7607L24.6163 27.097ZM25.436 30.0082L30.0514 27.8654L30.6409 29.1352L26.0255 31.278L25.436 30.0082ZM38.3993 40.1097L35.5147 35.2882L36.7161 34.5695L39.6007 39.3909L38.3993 40.1097ZM35.5274 35.3088C35.2657 34.9037 34.7851 34.2842 34.2193 33.7751C33.6263 33.2415 33.0734 32.9503 32.6538 32.9503V31.5503C33.6189 31.5503 34.5083 32.1519 35.1557 32.7344C35.8303 33.3413 36.3881 34.0611 36.7033 34.549L35.5274 35.3088ZM32.6538 32.9503C32.4305 32.9503 32.3658 33.0212 32.3273 33.0766C32.2607 33.1724 32.2 33.3615 32.2 33.6565C32.2 33.9403 32.2569 34.2509 32.3448 34.5161C32.3882 34.6473 32.4358 34.7567 32.4802 34.8386C32.5282 34.927 32.5576 34.9557 32.5532 34.9516L31.6006 35.9775C31.3255 35.722 31.1355 35.3177 31.0158 34.9565C30.8874 34.5689 30.8 34.1094 30.8 33.6565C30.8 33.2149 30.8835 32.7009 31.1775 32.2778C31.4996 31.8142 32.0118 31.5503 32.6538 31.5503V32.9503ZM32.5532 34.9516C32.8623 35.2386 33.0508 35.401 33.2582 35.478C33.4121 35.5352 33.6493 35.5699 34.0898 35.3654L34.6794 36.6352C33.9661 36.9664 33.3379 37.0011 32.7707 36.7904C32.2569 36.5996 31.8684 36.2262 31.6006 35.9775L32.5532 34.9516ZM34.0898 35.3654C34.957 34.9628 35.5085 34.5372 35.6391 34.4159L36.5917 35.4418C36.3377 35.6777 35.6584 36.1807 34.6794 36.6352L34.0898 35.3654ZM28.8224 27.0261L25.3608 28.0976L24.9469 26.7602L28.4084 25.6887L28.8224 27.0261ZM25.1538 28.1289H24V26.7289H25.1538V28.1289Z" fill="#224099"/>
<path d="M15.9229 12.4287H32.0767V19.3518C32.0767 23.8126 28.4605 27.4287 23.9998 27.4287V27.4287C19.539 27.4287 15.9229 23.8125 15.9229 19.3518V12.4287Z" stroke="#224099" stroke-width="1.4"/>
<path d="M15.9229 12.4286H32.0768C33.2117 10.8478 32.4635 8.61969 30.6045 8.04429L25.9289 6.59709C24.6723 6.20813 23.3274 6.20813 22.0708 6.59709L17.3952 8.04429C15.5362 8.61969 14.788 10.8478 15.9229 12.4286Z" stroke="#224099" stroke-width="1.4"/>
<path d="M15.9229 15.643V12.4287H32.0767V15.643L29.5827 17.1869C28.9502 17.5784 28.2211 17.7859 27.4773 17.7859H20.5223C19.7784 17.7859 19.0493 17.5784 18.4169 17.1869L15.9229 15.643Z" stroke="#224099" stroke-width="1.4" stroke-linecap="round" stroke-linejoin="round"/>
<path d="M21.6924 22.6074C21.6924 22.6074 22.9925 23.6789 24.0001 23.6789C25.0077 23.6789 26.3078 22.6074 26.3078 22.6074" stroke="#224099" stroke-width="1.4" stroke-linecap="round" stroke-linejoin="round"/>
</svg>
