<svg width="48" height="48" viewBox="0 0 48 48" fill="none" xmlns="http://www.w3.org/2000/svg">
<path d="M40.5267 28C40.8361 26.7172 41 25.3778 41 24C41 14.6112 33.3888 7 24 7C14.6112 7 7 14.6112 7 24C7 33.3888 14.6112 41 24 41C25.3778 41 26.7172 40.8361 28 40.5267" stroke="#224099" stroke-width="1.4"/>
<path d="M37.6778 27C37.8888 26.0335 38 25.0297 38 24C38 16.268 31.732 10 24 10C16.268 10 10 16.268 10 24C10 31.732 16.268 38 24 38C25.0297 38 26.0335 37.8888 27 37.6778" stroke="#224099" stroke-width="1.4"/>
<circle cx="35" cy="35" r="6" stroke="#F47920" stroke-width="1.4"/>
<path d="M24.7 12C24.7 11.6134 24.3866 11.3 24 11.3C23.6134 11.3 23.3 11.6134 23.3 12H24.7ZM23.3 14C23.3 14.3866 23.6134 14.7 24 14.7C24.3866 14.7 24.7 14.3866 24.7 14H23.3ZM23.3 12V14H24.7V12H23.3Z" fill="#224099"/>
<path d="M24.7 34C24.7 33.6134 24.3866 33.3 24 33.3C23.6134 33.3 23.3 33.6134 23.3 34H24.7ZM23.3 36C23.3 36.3866 23.6134 36.7 24 36.7C24.3866 36.7 24.7 36.3866 24.7 36H23.3ZM23.3 34V36H24.7V34H23.3Z" fill="#224099"/>
<path d="M36 24.7C36.3866 24.7 36.7 24.3866 36.7 24C36.7 23.6134 36.3866 23.3 36 23.3L36 24.7ZM34 23.3C33.6134 23.3 33.3 23.6134 33.3 24C33.3 24.3866 33.6134 24.7 34 24.7L34 23.3ZM36 23.3L34 23.3L34 24.7L36 24.7L36 23.3Z" fill="#224099"/>
<path d="M14 24.7C14.3866 24.7 14.7 24.3866 14.7 24C14.7 23.6134 14.3866 23.3 14 23.3L14 24.7ZM12 23.3C11.6134 23.3 11.3 23.6134 11.3 24C11.3 24.3866 11.6134 24.7 12 24.7L12 23.3ZM14 23.3L12 23.3L12 24.7L14 24.7L14 23.3Z" fill="#224099"/>
<path d="M15.0197 31.9904C14.7463 32.2637 14.7463 32.707 15.0197 32.9803C15.293 33.2537 15.7363 33.2537 16.0096 32.9803L15.0197 31.9904ZM17.4238 31.5661C17.6972 31.2927 17.6972 30.8495 17.4238 30.5762C17.1505 30.3028 16.7073 30.3028 16.4339 30.5762L17.4238 31.5661ZM16.0096 32.9803L17.4238 31.5661L16.4339 30.5762L15.0197 31.9904L16.0096 32.9803Z" fill="#224099"/>
<path d="M30.5763 16.4337C30.3029 16.7071 30.3029 17.1503 30.5763 17.4237C30.8497 17.6971 31.2929 17.6971 31.5663 17.4237L30.5763 16.4337ZM32.9805 16.0095C33.2538 15.7361 33.2538 15.2929 32.9805 15.0195C32.7071 14.7462 32.2639 14.7462 31.9905 15.0195L32.9805 16.0095ZM31.5663 17.4237L32.9805 16.0095L31.9905 15.0195L30.5763 16.4337L31.5663 17.4237Z" fill="#224099"/>
<path d="M16.0096 15.0197C15.7363 14.7463 15.293 14.7463 15.0197 15.0197C14.7463 15.293 14.7463 15.7363 15.0197 16.0096L16.0096 15.0197ZM16.4339 17.4238C16.7073 17.6972 17.1505 17.6972 17.4238 17.4238C17.6972 17.1505 17.6972 16.7073 17.4238 16.4339L16.4339 17.4238ZM15.0197 16.0096L16.4339 17.4238L17.4238 16.4339L16.0096 15.0197L15.0197 16.0096Z" fill="#224099"/>
<path d="M31.5 35L34 37.5L38 32.5" stroke="#F47920" stroke-width="1.4"/>
<path d="M24 24V18.5" stroke="#F47920" stroke-width="1.4" stroke-linecap="round"/>
<path d="M24 24L17 24" stroke="#F47920" stroke-width="1.4" stroke-linecap="round"/>
</svg>
